<?xml version="1.0" encoding="UTF-8"?>
<svg id="Capa_1" data-name="Capa 1" xmlns="http://www.w3.org/2000/svg" viewBox="0 0 146.21 146.21">
  <defs>
    <style>
      .cls-1 {
        fill: #ec4342;
      }

      .cls-2 {
        fill: #fdead2;
      }
    </style>
  </defs>
  <circle class="cls-1" cx="73.11" cy="73.11" r="73.11"/>
  <g>
    <path class="cls-2" d="M86.24,75.46l-7.71,7.45c-.59.53-2.22.24-2.32.33-.58.55,2.61,11.32,2.64,13.07.06,2.77-1.95,7.5-1.77,9.97.22,2.96,4.2,9.91,4.92,13.24l18.99-2.26,2.11-26.24-11.16-14.29c-1.17-.88-4.82-1.27-5.72-1.27Z"/>
    <path class="cls-2" d="M123.3,47.25c-.64-.92-1.05-2.43-2.17-2.97-.78-.38-16.03-3.06-17.06-2.98l-20.06,8.71-4.1,16.74,5.59,6.43c.91.55,10.51-2.41,12.39-2.19.78.09,10.23,5.23,11.55,6.08,2.49,1.59,4.45,3.86,6.82,5.6l7.98-2.72,5-22.67c-.1-.86-5.06-8.78-5.93-10.02Z"/>
    <path class="cls-2" d="M80.46,41.72l-1.64-19.5c-.15-.29-.95-.56-1.41-.84-.84-.51-9.44-4.1-9.99-4.08-.8.02-13.1,6.43-14.2,7.21-.45.31-.84.76-1.35,1.03l-6.73,15.7c-.09,1.18,11.51,17.84,12.99,19.73.64.82,4.58,5.64,5.69,4.86.05-.04.45-.59.57-.66.27-.16.67-.33.87-.38.25-.06-.15-.58.67-.54.04,0,.24.05.5.1.32.07.69.16.69.16,2.97.55,6.23,2.46,9.63,1.85-2.24-8.49,2.08-16.45,3.71-24.64Z"/>
    <path class="cls-2" d="M55.06,87.27c2.88-2.21,3.94-6.52,7.06-8.56-1.19-1.22-2.62-2.7-2.53-4.57.04-.77.84-.17,1.02-.83.23-.89.18-2.05.57-2.99l-10.67-1.34c-4.94-1.52-10.6-1.2-15.72-1.73l-17.81,9.65,6.74,23.36c.59.37,11.9-1.23,13.12-1.66l12.77-8.01c1.66-1.06,3.99-2.21,5.45-3.32Z"/>
    <path class="cls-2" d="M75.14,94.17c.04-.79-1.44-10.1-1.8-10.49-.64-.68-5.28.25-6.34.08-.51-.46-2.46-2.74-2.66-2.88-.63-.44-3.36,3.98-3.57,4.49l-.64,1.05c-1.49,2.99-2.51,5.83-4.37,8.69-3.28,5.04-7.86,9.86-11.13,14.98l1.42,18.83c6.32-.53,12.12-3.51,18.57-1.88h2.18c.54-.19,6.53-8.67,6.67-9.22,1.01-4.05-1.57-11.86-1.11-15.94.22-1.97,2.66-5.43,2.78-7.71Z"/>
  </g>
</svg>