<?xml version="1.0" encoding="UTF-8"?>
<svg id="Capa_1" data-name="Capa 1" xmlns="http://www.w3.org/2000/svg" viewBox="0 0 1165.96 989.68">
  <defs>
    <style>
      .cls-1 {
        fill: #ffecd7;
      }
    </style>
  </defs>
  <path class="cls-1" d="M612.85,128.87h-194.6c-2.95,0-5.31,2.36-5.9,5.31l-67.23,396.27c-.59,3.54,2.36,6.49,5.9,6.49h130.32c2.36,0,4.72-1.77,5.31-4.13l5.31-117.35c0-2.36,2.95-2.95,5.9-4.13l38.33-17.1c2.36-1.18,5.31,1.77,5.31,4.13l3.54,134.45c.59,2.36,2.95,4.13,5.31,4.13h130.32c2.95,0,5.9-2.95,5.31-6.49l-67.23-396.27c-.59-2.95-2.95-5.31-5.9-5.31ZM484.3,329.95l15.33-87.86,37.15-16.51,7.67,81.97-60.15,22.41Z"/>
  <path class="cls-1" d="M267.8,581.62H73.2c-2.95,0-5.31,2.36-5.9,5.31L.08,983.2c-.59,3.54,2.36,6.49,5.9,6.49h130.32c2.36,0,4.72-1.77,5.31-4.13l5.31-117.35c0-2.36,2.95-2.95,5.9-4.13l38.33-17.1c2.36-1.18,5.31,1.77,5.31,4.13l3.54,134.45c.59,2.36,2.95,4.13,5.31,4.13h130.32c2.95,0,5.9-2.95,5.31-6.49l-67.23-396.27c-.59-2.95-2.95-5.31-5.9-5.31ZM139.24,782.7l15.33-87.86,37.15-16.51,7.67,81.97-60.15,22.41Z"/>
  <path class="cls-1" d="M1092.76,581.62h-194.6c-2.95,0-5.31,2.36-5.9,5.31l-67.23,396.27c-.59,3.54,2.36,6.49,5.9,6.49h130.32c2.36,0,4.72-1.77,5.31-4.13l5.31-117.35c0-2.36,2.95-2.95,5.9-4.13l38.33-17.1c2.36-1.18,5.31,1.77,5.31,4.13l3.54,134.45c.59,2.36,2.95,4.13,5.31,4.13h130.32c2.95,0,5.9-2.95,5.31-6.49l-67.23-396.27c-.59-2.95-2.95-5.31-5.9-5.31ZM964.21,782.7l15.33-87.86,37.15-16.51,7.67,81.97-60.15,22.41Z"/>
  <path class="cls-1" d="M705.91,536.94h84.51c2.33,0,4.66-4.06,5.25-6.39l2.33-174.14c1.17-5.22,8.74-5.8,9.32-.58l40.8,174.72c.58,2.32,2.33,6.39,4.66,6.39h84.51c2.91,0,5.25-3.48,5.83-6.39l38.47-174.72c1.17-5.22,8.16-4.64,9.32.58l5.25,174.14c0,2.32,2.91,6.39,5.25,6.39h84.51c2.33,0,3.5-2.9,3.5-5.8l-26.23-395.88c0-2.9-2.91-6.39-5.25-6.39h-128.8c-2.91,0-2.91,4.06-3.5,6.39l-26.23,156.73c-1.17,5.8-6.41,5.22-7.58,0l-32.05-156.73c-.58-2.32-.58-6.39-3.5-6.39h-128.8c-2.33,0-5.83,3.48-5.83,6.39l-19.23,395.88c0,2.9,1.17,5.8,3.5,5.8Z"/>
  <path class="cls-1" d="M372.78,989.68h130.32c2.95,0,5.31-2.95,5.31-6.49l-23-395.09c0-2.95-2.95-6.49-5.9-6.49h-85.51c-2.95,0-5.31,3.54-5.31,6.49l-21.82,395.09c0,3.54,2.95,6.49,5.9,6.49Z"/>
  <path class="cls-1" d="M801.53,854.06c0-2.95-2.36-5.31-5.31-5.31l-114.4,37.74-.59-18.28-10.02-188.7,116.17,35.38c2.95,0,5.31-2.36,5.31-5.31l-10.02-123.25c0-2.36-2.36-4.72-4.72-4.72h-215.83c-2.95,0-5.31,2.36-5.31,4.72l-8.83,283.64h-.02l-1.77,114.4c-.59,2.95,1.77,5.31,4.72,5.31h249.44c2.95,0,5.31-2.36,5.31-5.31l-4.13-130.32Z"/>
  <path class="cls-1" d="M225.33,128.87h76.62c3.48,0,5.8,3.48,5.8,6.39l23.22,395.88c0,2.9-2.32,5.8-5.8,5.8H83.12c-2.9,0-5.22-2.32-5.22-5.8v-161.37c0-3.48,2.32-5.8,5.22-5.8h53.4c2.32,0,4.64,1.74,5.22,4.06l13.93,51.08c1.16,2.32,2.9,4.06,5.8,4.06h34.25c2.9,0,5.22-2.32,5.8-5.22l17.99-282.69c.58-2.9,2.9-6.39,5.8-6.39Z"/>
  <g>
    <path class="cls-1" d="M116.78,1.53h16.08v85.5h-16.08V1.53ZM128.78,43.64h23.35c3.99,0,7.21-1.23,9.63-3.7,2.43-2.47,3.64-5.78,3.64-9.95s-1.21-7.44-3.64-9.82c-2.42-2.38-5.64-3.57-9.63-3.57h-23.35V1.53h24.88c5.53,0,10.4,1.15,14.61,3.45s7.49,5.55,9.82,9.76c2.34,4.21,3.51,9.17,3.51,14.87s-1.18,10.83-3.51,15.12-5.61,7.65-9.82,10.08c-4.21,2.42-9.09,3.63-14.61,3.63h-24.88v-14.8ZM146.64,54.36l15.31-3.19,21.18,35.86h-18.88l-17.61-32.67Z"/>
    <path class="cls-1" d="M243.62,1.53h22.59l26.42,85.5h-17.86l-19.53-69.17h-1.28l-19.53,69.17h-17.23L243.62,1.53ZM235.84,54.62h37.77l3.06,14.55h-43.26l2.43-14.55Z"/>
    <path class="cls-1" d="M341.57,85.31c-4.98-2.17-8.79-5.15-11.42-8.93-2.64-3.79-3.96-8.23-3.96-13.34v-1.53h17.36v1.79c0,3.49,1.4,6.3,4.21,8.42,2.81,2.13,6.47,3.19,10.98,3.19,2.72,0,5.21-.4,7.46-1.21s4.02-1.98,5.3-3.51c1.28-1.53,1.91-3.36,1.91-5.49,0-2.38-.79-4.36-2.36-5.93s-3.53-2.87-5.87-3.89-5.64-2.17-9.89-3.45c-5.87-2.04-10.65-3.97-14.36-5.8-3.7-1.83-6.87-4.47-9.5-7.91-2.64-3.45-3.96-7.94-3.96-13.46,0-5.02,1.26-9.34,3.77-12.95,2.5-3.62,6.1-6.4,10.78-8.36s10.08-2.93,16.21-2.93,11.51,1,16.14,3,8.21,4.81,10.72,8.42c2.5,3.62,3.76,7.85,3.76,12.69v1.41h-16.85v-1.41c0-3.15-1.3-5.68-3.89-7.59s-5.93-2.88-10.02-2.88c-2.64,0-5,.39-7.08,1.15-2.09.77-3.7,1.87-4.85,3.32s-1.72,3.06-1.72,4.85c0,2.38.78,4.32,2.36,5.81,1.57,1.48,3.53,2.74,5.88,3.76,2.34,1.02,5.59,2.21,9.76,3.57,5.87,1.87,10.7,3.69,14.49,5.43,3.78,1.75,7.02,4.34,9.7,7.78,2.68,3.45,4.02,8.06,4.02,13.85,0,5.1-1.32,9.57-3.96,13.39-2.64,3.83-6.38,6.79-11.23,8.87-4.85,2.08-10.42,3.12-16.71,3.12s-12.19-1.08-17.16-3.25Z"/>
    <path class="cls-1" d="M425.6,1.53h62.91v15.06h-62.91V1.53ZM448.95,9.82h16.33v77.21h-16.33V9.82Z"/>
    <path class="cls-1" d="M528.96,1.53h16.08v85.5h-16.08V1.53ZM540.96,43.64h23.35c3.99,0,7.21-1.23,9.63-3.7,2.43-2.47,3.64-5.78,3.64-9.95s-1.21-7.44-3.64-9.82c-2.42-2.38-5.64-3.57-9.63-3.57h-23.35V1.53h24.88c5.53,0,10.4,1.15,14.61,3.45s7.49,5.55,9.82,9.76c2.34,4.21,3.52,9.17,3.52,14.87s-1.18,10.83-3.52,15.12c-2.34,4.3-5.61,7.65-9.82,10.08-4.21,2.42-9.09,3.63-14.61,3.63h-24.88v-14.8ZM558.82,54.36l15.31-3.19,21.19,35.86h-18.89l-17.61-32.67Z"/>
    <path class="cls-1" d="M648.53,84.73c-5.1-2.55-9.04-6.21-11.81-10.97-2.76-4.76-4.14-10.25-4.14-16.46v-26.03c0-6.21,1.38-11.7,4.14-16.46,2.77-4.76,6.72-8.42,11.87-10.97,5.14-2.55,11.04-3.83,17.67-3.83s12.78,1.3,17.93,3.89c5.14,2.59,9.1,6.25,11.87,10.97,2.76,4.73,4.15,10.19,4.15,16.4v26.03c0,6.22-1.39,11.68-4.15,16.4-2.77,4.73-6.72,8.38-11.87,10.97-5.15,2.59-11.17,3.89-18.06,3.89s-12.5-1.27-17.61-3.83ZM675.58,71.39c2.64-1.4,4.68-3.29,6.13-5.68s2.17-5.27,2.17-8.67v-25.52c0-3.4-.73-6.3-2.17-8.68-1.44-2.38-3.49-4.27-6.13-5.68s-5.74-2.11-9.32-2.11-6.57.7-9.25,2.11c-2.68,1.41-4.76,3.32-6.25,5.74-1.49,2.43-2.23,5.3-2.23,8.62v25.52c0,3.31.74,6.18,2.23,8.61,1.48,2.43,3.57,4.34,6.25,5.74,2.68,1.41,5.81,2.11,9.38,2.11s6.55-.7,9.19-2.11Z"/>
    <path class="cls-1" d="M753.87,85.31c-4.98-2.17-8.79-5.15-11.42-8.93-2.64-3.79-3.96-8.23-3.96-13.34v-1.53h17.36v1.79c0,3.49,1.4,6.3,4.21,8.42,2.81,2.13,6.47,3.19,10.98,3.19,2.72,0,5.21-.4,7.46-1.21s4.02-1.98,5.3-3.51c1.28-1.53,1.91-3.36,1.91-5.49,0-2.38-.79-4.36-2.36-5.93s-3.53-2.87-5.87-3.89-5.64-2.17-9.89-3.45c-5.87-2.04-10.65-3.97-14.36-5.8-3.7-1.83-6.87-4.47-9.5-7.91-2.64-3.45-3.96-7.94-3.96-13.46,0-5.02,1.26-9.34,3.77-12.95,2.5-3.62,6.1-6.4,10.78-8.36s10.08-2.93,16.21-2.93,11.51,1,16.14,3,8.21,4.81,10.72,8.42c2.5,3.62,3.76,7.85,3.76,12.69v1.41h-16.85v-1.41c0-3.15-1.3-5.68-3.89-7.59s-5.93-2.88-10.02-2.88c-2.64,0-5,.39-7.08,1.15-2.09.77-3.7,1.87-4.85,3.32s-1.72,3.06-1.72,4.85c0,2.38.78,4.32,2.36,5.81,1.57,1.48,3.53,2.74,5.88,3.76,2.34,1.02,5.59,2.21,9.76,3.57,5.87,1.87,10.7,3.69,14.49,5.43,3.78,1.75,7.02,4.34,9.7,7.78,2.68,3.45,4.02,8.06,4.02,13.85,0,5.1-1.32,9.57-3.96,13.39-2.64,3.83-6.38,6.79-11.23,8.87-4.85,2.08-10.42,3.12-16.71,3.12s-12.19-1.08-17.16-3.25Z"/>
    <path class="cls-1" d="M899.03,1.53h16.08v85.5h-16.08V1.53ZM911.02,71.97h19.27c3.65,0,6.83-.66,9.5-1.98,2.68-1.32,4.73-3.21,6.13-5.68,1.41-2.47,2.11-5.4,2.11-8.8v-22.46c0-3.4-.7-6.34-2.11-8.8-1.4-2.47-3.44-4.36-6.13-5.68-2.68-1.32-5.85-1.98-9.5-1.98h-19.27V1.53h19.91c6.47,0,12.23,1.3,17.29,3.9s8.98,6.25,11.74,10.97c2.76,4.72,4.14,10.1,4.14,16.14v23.48c0,6.04-1.38,11.42-4.14,16.14-2.77,4.72-6.68,8.38-11.74,10.97s-10.83,3.89-17.29,3.89h-19.91v-15.06Z"/>
    <path class="cls-1" d="M1007.63,1.53h16.08v85.5h-16.08V1.53ZM1016.3,1.53h45.56v14.94h-45.56V1.53ZM1016.3,36.63h40.58v14.54h-40.58v-14.54ZM1016.3,72.1h45.56v14.93h-45.56v-14.93Z"/>
  </g>
</svg>